<svg xmlns="http://www.w3.org/2000/svg" width="667" height="1573" viewBox="0 0 667 1573">
<g>
<path d="M 488.00 1163.32 C436.02,1163.44 392.74,1163.90 391.81,1164.35 C390.44,1165.01 389.94,1164.45 389.17,1161.33 C388.65,1159.23 387.70,1127.12 387.06,1090.00 C386.42,1052.88 385.47,1007.95 384.95,990.18 C384.31,968.26 384.34,957.23 385.03,955.94 C385.60,954.88 387.28,953.77 388.78,953.45 C390.28,953.13 392.49,952.67 393.70,952.43 C394.91,952.19 397.16,950.90 398.70,949.57 L 401.50 947.15 L 401.25 917.33 C401.11,900.92 400.79,886.60 400.54,885.50 C400.22,884.10 400.83,883.15 402.56,882.34 C404.74,881.31 406.13,881.74 414.27,886.00 C419.35,888.66 427.55,892.09 432.50,893.63 C448.04,898.45 467.65,897.21 485.34,890.28 C490.30,888.34 503.83,879.60 509.68,874.57 C521.00,864.81 530.31,842.04 537.48,806.50 C541.63,785.96 547.37,775.96 558.22,770.41 C562.18,768.38 564.38,768.00 572.03,768.00 C583.52,768.00 589.23,770.24 597.35,777.95 C613.64,793.42 624.07,837.63 620.03,874.18 C617.56,896.62 609.01,928.95 601.56,944.00 C600.34,946.47 599.00,949.85 598.59,951.50 C598.18,953.15 596.59,957.20 595.04,960.50 C593.50,963.80 591.67,968.30 590.99,970.50 C590.31,972.70 588.25,978.10 586.42,982.50 C581.42,994.47 574.34,1014.83 572.06,1023.75 C567.67,1040.97 567.07,1062.11 570.53,1078.50 C574.23,1096.07 576.77,1103.02 591.40,1135.50 C598.45,1151.17 599.46,1154.12 599.20,1158.25 L 598.89 1163.00 L 590.70 1163.06 C586.19,1163.09 539.97,1163.21 488.00,1163.32 ZM 274.90 1154.44 C274.43,1158.81 273.47,1162.88 272.77,1163.48 C271.97,1164.17 269.11,1164.35 265.00,1163.97 C261.42,1163.65 217.55,1163.44 167.50,1163.52 C117.45,1163.59 73.91,1163.47 70.75,1163.24 C62.87,1162.66 62.56,1161.09 67.48,1146.60 C69.55,1140.50 71.63,1135.01 72.11,1134.41 C72.58,1133.82 73.67,1131.34 74.52,1128.91 C75.38,1126.49 78.34,1119.10 81.12,1112.50 C83.89,1105.90 86.52,1099.60 86.97,1098.50 C97.05,1073.85 102.62,1041.70 101.69,1013.50 C101.24,999.72 100.60,994.95 97.12,979.14 C93.38,962.13 93.21,960.65 94.72,959.14 C96.21,957.65 104.15,957.48 181.43,957.31 C230.69,957.20 268.27,956.73 270.71,956.18 C277.98,954.54 278.50,955.55 278.50,971.17 C278.50,991.80 276.85,1085.43 276.48,1086.04 C276.29,1086.33 276.05,1100.06 275.95,1116.54 C275.84,1133.02 275.36,1150.07 274.90,1154.44 ZM 339.17 1163.12 C331.89,1163.44 326.24,1163.47 323.81,1163.19 C319.17,1162.65 318.67,1158.92 319.38,1130.10 C319.72,1116.02 320.28,1072.10 320.63,1032.50 C320.97,992.90 321.64,959.48 322.11,958.23 C323.22,955.28 326.78,954.00 333.89,954.00 C338.59,954.00 340.03,954.42 341.71,956.25 C343.75,958.47 343.79,959.57 344.54,1042.50 C345.49,1146.95 345.43,1153.28 343.41,1158.75 C342.12,1162.23 341.35,1163.02 339.17,1163.12 ZM 377.97 1102.53 C378.79,1155.68 378.57,1166.24 376.67,1164.33 C376.21,1163.87 371.72,1163.28 366.67,1163.00 L 357.50 1162.50 L 356.35 1157.83 C355.57,1154.68 355.01,1131.40 354.62,1085.83 C354.30,1048.80 353.79,1004.78 353.48,988.00 C353.00,962.18 353.14,957.22 354.37,955.68 C355.54,954.22 357.43,953.82 363.89,953.68 C364.81,953.66 365.66,953.62 366.44,953.58 C369.09,953.46 370.98,953.37 372.35,954.18 C376.23,956.45 375.90,965.89 376.44,1002.00 C376.80,1026.47 377.49,1071.71 377.97,1102.53 ZM 307.85 1160.25 C307.27,1162.86 306.51,1164.91 306.15,1164.80 C305.79,1164.68 301.79,1164.44 297.26,1164.26 C290.02,1163.96 288.89,1163.66 287.87,1161.75 C287.02,1160.17 286.79,1147.34 287.00,1114.54 C287.17,1089.77 287.41,1066.12 287.55,1062.00 C287.68,1057.88 287.86,1034.47 287.93,1010.00 C288.01,985.53 288.47,963.75 288.96,961.61 C290.27,955.90 291.75,954.94 300.24,954.30 C307.43,953.75 307.85,953.84 309.11,956.11 C310.19,958.05 310.40,972.87 310.21,1035.00 C309.94,1122.03 309.34,1153.43 307.85,1160.25 Z" fill="rgb(47,175,105)"/>
<path d="M 488.00 1163.32 C539.97,1163.21 586.19,1163.09 590.70,1163.06 L 598.89 1163.00 L 599.07 1160.16 C599.09,1163.40 599.60,1163.80 602.24,1165.05 C606.57,1167.11 610.98,1176.09 633.91,1229.58 C639.89,1243.52 650.91,1275.32 655.05,1290.58 C660.01,1308.87 664.54,1335.41 665.96,1354.50 C665.96,1354.55 665.97,1354.57 665.97,1354.57 C666.38,1354.57 666.77,1054.13 666.85,682.25 L 667.00 0.00 L 667.00 1573.00 L 666.83 1475.25 C666.74,1422.83 666.53,1381.42 666.35,1381.42 C666.35,1381.42 666.34,1381.44 666.34,1381.50 C664.82,1400.14 659.43,1427.34 654.96,1439.00 C651.51,1447.97 640.46,1469.31 635.44,1476.66 C628.97,1486.16 620.55,1496.58 614.56,1502.51 C607.99,1509.01 592.06,1521.80 582.00,1528.64 C572.04,1535.42 545.36,1549.00 542.02,1549.00 C541.40,1549.00 539.06,1549.89 536.80,1550.98 C534.54,1552.07 531.07,1553.26 529.10,1553.61 C527.12,1553.97 525.05,1554.59 524.50,1555.00 C523.95,1555.41 521.03,1556.33 518.00,1557.06 C514.97,1557.78 512.05,1558.70 511.50,1559.10 C510.04,1560.15 502.22,1560.55 501.29,1559.62 C500.86,1559.19 500.50,1535.36 500.50,1506.67 C500.50,1455.92 500.44,1454.31 498.33,1447.50 C492.72,1429.46 490.61,1425.62 476.50,1407.92 C466.79,1395.74 461.90,1390.60 457.72,1388.19 C451.03,1384.33 431.98,1375.98 426.50,1374.51 C425.38,1374.21 424.34,1373.93 423.31,1373.67 C410.52,1370.50 396.95,1370.50 206.05,1370.50 L 2.23 1370.50 L 1.64 1364.80 C1.31,1361.67 1.47,1354.47 1.99,1348.80 C2.51,1343.14 3.17,1335.35 3.47,1331.50 C3.76,1327.65 4.68,1320.90 5.50,1316.50 C7.59,1305.32 7.85,1304.06 8.44,1302.17 C8.73,1301.25 9.17,1298.93 9.42,1297.00 C10.81,1286.20 17.77,1263.11 25.59,1243.34 C28.01,1237.20 30.00,1231.89 30.00,1231.54 C30.00,1231.19 31.56,1227.57 33.47,1223.49 C35.38,1219.42 37.24,1214.83 37.60,1213.29 C38.24,1210.59 39.54,1207.42 44.61,1196.22 C45.93,1193.32 47.00,1190.75 47.00,1190.51 C47.00,1189.63 54.37,1174.48 55.03,1174.00 C55.41,1173.72 56.47,1172.05 57.38,1170.27 C58.29,1168.49 60.35,1166.06 61.96,1164.87 C64.06,1163.32 64.66,1162.39 64.46,1160.66 C65.11,1162.50 67.13,1162.97 70.75,1163.24 C73.91,1163.47 117.45,1163.59 167.50,1163.52 C217.55,1163.44 261.42,1163.65 265.00,1163.97 C269.11,1164.35 271.97,1164.17 272.77,1163.48 C273.33,1163.00 274.06,1160.29 274.56,1156.99 C274.14,1160.65 273.61,1162.76 272.97,1163.54 C272.16,1164.51 272.34,1165.72 273.68,1168.18 C275.22,1171.02 275.53,1174.54 275.80,1192.50 C275.97,1204.05 275.73,1220.56 275.26,1229.20 C274.19,1248.81 274.34,1248.59 262.20,1249.19 C251.80,1249.70 248.57,1251.10 244.56,1256.82 C241.72,1260.86 241.50,1261.81 241.16,1271.98 C240.72,1284.61 242.16,1290.31 247.26,1296.29 C249.97,1299.45 251.41,1300.22 256.00,1300.96 C263.98,1302.25 406.20,1302.29 410.98,1301.00 C416.23,1299.59 420.54,1294.43 422.03,1287.76 C422.73,1284.61 423.08,1277.61 422.86,1270.77 C422.54,1260.87 422.18,1258.71 420.39,1256.32 C417.01,1251.78 413.02,1250.05 404.41,1249.41 C393.53,1248.60 390.33,1247.51 389.74,1244.40 C389.47,1243.02 389.19,1237.30 389.11,1231.69 C389.03,1226.09 388.50,1209.90 387.93,1195.71 C387.04,1173.54 387.10,1169.51 388.37,1166.97 C389.40,1164.90 389.60,1163.03 389.03,1160.76 C388.58,1158.96 387.69,1127.12 387.06,1090.00 C386.44,1053.89 385.53,1010.40 385.00,991.69 C385.53,1010.40 386.44,1053.89 387.06,1090.00 C387.70,1127.12 388.65,1159.23 389.17,1161.33 C389.94,1164.45 390.44,1165.01 391.81,1164.35 C392.74,1163.90 436.02,1163.44 488.00,1163.32 ZM 339.17 1163.12 C341.35,1163.02 342.12,1162.23 343.41,1158.75 C343.76,1157.79 344.05,1156.81 344.29,1155.27 C344.06,1156.98 343.77,1158.01 343.42,1158.84 C342.11,1161.99 342.14,1162.49 343.74,1164.26 C345.30,1165.98 345.60,1169.76 346.39,1196.85 C346.88,1213.71 346.96,1231.83 346.56,1237.13 C345.88,1246.06 345.65,1246.84 343.37,1247.88 C342.01,1248.49 336.22,1249.00 330.49,1249.00 C320.73,1249.00 319.99,1248.86 318.88,1246.77 C317.03,1243.32 318.44,1167.13 320.39,1165.18 C321.40,1164.17 321.56,1163.52 320.83,1161.53 C321.55,1162.64 322.52,1163.04 323.81,1163.19 C326.24,1163.47 331.89,1163.44 339.17,1163.12 ZM 379.13 1247.35 C378.02,1248.68 375.85,1249.00 368.03,1249.00 C366.93,1249.00 365.92,1249.02 364.99,1249.04 C361.70,1249.11 359.44,1249.16 357.90,1248.14 C354.54,1245.91 354.54,1238.60 354.56,1215.37 C354.56,1212.35 354.56,1209.07 354.55,1205.49 C354.51,1170.76 354.69,1165.89 356.09,1164.48 C357.17,1163.41 357.43,1162.65 356.98,1160.39 L 357.50 1162.50 L 366.67 1163.00 C371.72,1163.28 376.21,1163.87 376.67,1164.33 C377.92,1165.58 378.44,1161.46 378.42,1143.44 C378.48,1153.76 378.44,1160.51 378.30,1161.25 C377.97,1162.92 378.42,1164.99 379.43,1166.53 C380.86,1168.72 381.08,1172.31 381.00,1193.28 C380.84,1238.62 380.60,1245.57 379.13,1247.35 ZM 307.24 1246.20 C305.39,1248.05 303.63,1248.53 297.55,1248.84 C290.66,1249.19 289.94,1249.03 287.56,1246.65 C287.08,1246.17 286.69,1245.83 286.36,1245.43 C284.74,1243.46 284.75,1240.14 284.85,1213.16 C284.86,1211.45 284.86,1209.64 284.87,1207.74 C284.96,1182.20 285.90,1169.92 288.08,1165.86 C288.76,1164.58 288.70,1163.31 287.89,1161.79 C288.90,1163.66 290.07,1163.96 297.26,1164.26 C301.79,1164.44 305.79,1164.68 306.15,1164.80 C306.38,1164.87 306.77,1164.06 307.18,1162.79 C306.55,1165.22 306.74,1166.22 307.83,1167.87 C309.11,1169.79 309.35,1175.89 309.42,1207.04 L 309.50 1243.94 ZM 598.68 1153.28 C597.82,1150.03 595.77,1145.21 591.40,1135.50 C586.19,1123.94 582.51,1115.61 579.77,1108.89 C582.50,1115.57 586.14,1123.75 591.26,1135.00 C595.96,1145.31 597.92,1149.92 598.68,1153.28 ZM 67.18 1147.47 C68.90,1141.81 70.94,1136.08 72.03,1134.53 C71.43,1135.54 69.45,1140.79 67.48,1146.60 C67.38,1146.90 67.28,1147.19 67.18,1147.47 ZM 319.91 1159.09 C319.19,1156.66 318.99,1152.76 319.14,1142.31 C319.04,1151.04 319.23,1156.13 319.91,1159.09 ZM 355.82 1151.98 C355.29,1142.51 354.93,1122.17 354.62,1085.91 C354.58,1081.28 354.54,1076.54 354.49,1071.75 C354.54,1076.51 354.58,1081.23 354.62,1085.83 C354.92,1120.38 355.31,1142.11 355.82,1151.98 ZM 275.47 1143.05 C275.70,1135.71 275.88,1126.03 275.95,1116.54 C275.87,1127.41 275.72,1136.17 275.47,1143.05 ZM 319.96 1094.12 C320.20,1075.72 320.44,1053.48 320.63,1032.50 C320.84,1007.75 321.18,985.41 321.52,971.84 C321.18,985.41 320.84,1007.75 320.63,1032.50 C320.45,1053.53 320.20,1075.77 319.96,1094.12 ZM 393.74 952.42 C395.12,952.04 397.27,950.81 398.70,949.57 C397.18,950.89 394.96,952.16 393.74,952.42 ZM 388.48 953.52 C387.06,953.91 385.56,954.96 385.03,955.94 C385.59,954.90 387.13,953.82 388.48,953.52 ZM 309.11 956.11 C309.93,957.57 310.24,966.21 310.27,996.48 C310.24,966.22 309.92,957.56 309.11,956.11 C308.99,955.90 308.88,955.71 308.77,955.53 C308.88,955.71 309.00,955.90 309.11,956.11 Z" fill="rgb(62,134,226)"/>
<path d="M 341.12 955.66 C339.65,954.32 338.03,954.00 333.89,954.00 C328.06,954.00 324.63,954.86 322.96,956.79 C323.62,955.22 323.33,954.92 321.74,954.42 L 319.67 953.76 L 320.33 822.13 C320.70,749.73 321.30,610.72 321.66,513.21 L 322.33 335.93 L 330.92 336.21 L 339.50 336.50 L 339.68 353.50 C339.78,362.85 340.34,426.30 340.93,494.50 C341.52,562.70 342.22,637.85 342.49,661.50 C342.76,685.15 343.28,760.41 343.64,828.75 L 344.29 953.00 L 342.15 953.00 C339.81,953.00 339.46,953.91 341.12,955.66 ZM 375.51 963.53 C375.01,957.72 374.11,955.21 372.35,954.18 C370.98,953.37 369.09,953.46 366.44,953.58 C365.66,953.62 364.81,953.66 363.89,953.68 C357.87,953.81 355.82,954.16 354.62,955.39 C354.74,954.80 354.41,954.26 353.60,953.46 C352.19,952.05 351.98,947.21 351.88,913.43 C351.81,892.29 351.67,874.66 351.57,874.25 C351.46,873.84 351.06,827.60 350.66,771.50 C350.26,715.40 349.74,665.22 349.50,660.00 C349.26,654.78 348.82,592.90 348.53,522.50 C348.23,452.10 347.71,381.34 347.37,365.25 L 346.76 336.00 L 355.31 336.00 C362.60,336.00 363.94,336.26 364.36,337.75 C364.92,339.74 365.73,383.56 366.55,456.00 C366.86,483.23 367.29,506.62 367.52,508.00 C367.75,509.38 368.17,528.50 368.47,550.50 C368.76,572.50 369.22,595.67 369.50,602.00 C370.59,627.22 370.98,643.29 371.48,684.50 C371.77,708.15 372.23,736.72 372.50,748.00 C372.76,759.28 373.25,788.75 373.57,813.50 C373.90,838.25 374.33,859.54 374.53,860.81 C374.73,862.09 375.21,883.28 375.60,907.90 C376.27,950.36 376.21,952.70 374.52,953.36 C372.91,953.97 372.88,954.22 374.24,955.77 C374.82,956.43 375.21,958.25 375.51,963.53 ZM 309.11 956.11 C309.00,955.90 308.89,955.71 308.78,955.54 L 308.77 955.53 C307.71,953.83 306.76,953.81 300.24,954.30 C292.76,954.86 290.72,955.67 289.45,959.76 C290.36,956.06 291.96,955.01 294.77,954.85 C296.54,954.75 295.97,954.49 293.17,954.10 L 288.83 953.50 L 288.95 919.50 C289.01,900.80 289.49,860.75 290.00,830.50 C290.52,800.25 291.18,752.55 291.48,724.50 C291.78,696.45 292.23,667.42 292.50,660.00 C292.76,652.58 293.27,624.90 293.61,598.50 C293.96,572.10 294.56,535.65 294.95,517.50 C295.33,499.35 295.72,463.35 295.82,437.50 C295.92,411.65 296.29,378.24 296.65,363.25 L 297.31 336.00 L 305.05 336.00 C310.90,336.00 312.92,336.35 313.35,337.46 C313.65,338.26 313.50,423.20 313.00,526.21 C311.25,887.29 310.76,953.48 309.78,954.71 C309.26,955.37 309.20,956.49 309.66,957.21 C309.78,957.40 309.89,960.21 309.97,964.99 C309.79,959.23 309.51,956.82 309.11,956.11 ZM 388.48 953.52 C387.13,953.82 385.59,954.90 385.03,955.94 C384.84,956.30 384.70,957.41 384.61,959.29 C384.69,957.44 384.82,956.34 384.99,956.03 C385.69,954.70 385.59,954.06 384.61,953.68 C383.51,953.26 383.13,944.86 382.61,909.33 C382.25,885.22 381.74,860.33 381.47,854.00 C381.20,847.67 380.54,814.60 380.01,780.50 C379.47,746.40 378.81,711.75 378.53,703.50 C378.25,695.25 377.79,673.65 377.50,655.50 C377.22,637.35 376.75,611.25 376.46,597.50 C375.40,545.87 374.03,477.50 373.50,449.00 C373.19,432.77 372.47,401.11 371.88,378.64 C371.30,356.16 371.20,337.41 371.66,336.97 C372.12,336.52 375.72,336.01 379.66,335.83 L 386.82 335.50 L 387.39 350.50 C387.71,358.75 388.43,386.20 388.99,411.50 C389.55,436.80 390.46,475.73 391.02,498.00 C391.58,520.28 392.49,558.30 393.03,582.50 C393.57,606.70 394.46,638.42 395.00,653.00 C395.54,667.58 396.44,703.58 397.00,733.00 C397.56,762.42 398.48,805.40 399.04,828.50 C400.09,871.43 400.28,881.58 401.52,882.94 C400.59,883.62 400.30,884.43 400.54,885.50 C400.79,886.60 401.11,900.92 401.25,917.33 L 401.50 947.15 L 398.70 949.57 C397.27,950.81 395.12,952.04 393.74,952.42 L 393.70 952.43 C392.49,952.67 390.28,953.13 388.78,953.45 C388.68,953.47 388.58,953.50 388.48,953.52 ZM 279.08 951.75 C278.97,954.76 277.68,954.72 268.38,951.40 C264.52,950.03 264.22,949.64 263.61,945.22 C263.25,942.62 263.41,918.22 263.95,891.00 C265.86,795.24 265.92,785.00 264.56,783.74 C263.57,782.81 263.73,782.23 265.34,780.92 C267.24,779.39 267.39,777.97 267.68,758.89 C267.86,747.68 268.46,714.65 269.02,685.50 C269.58,656.35 270.49,604.15 271.05,569.50 C271.60,534.85 272.71,476.12 273.51,439.00 C274.32,401.88 274.98,363.51 274.99,353.75 L 275.00 336.00 L 288.00 336.00 L 288.00 364.57 C288.00,380.28 287.55,416.39 286.99,444.82 C286.44,473.24 285.53,533.85 284.97,579.50 C284.41,625.15 283.54,683.42 283.04,709.00 C281.81,771.36 281.13,817.07 280.38,886.50 C280.04,918.40 279.63,945.62 279.46,947.00 C279.30,948.38 279.13,950.51 279.08,951.75 ZM 390.44 1246.03 C391.92,1247.93 395.70,1248.76 404.41,1249.41 C413.02,1250.05 417.01,1251.78 420.39,1256.32 C422.18,1258.71 422.54,1260.87 422.86,1270.77 C423.08,1277.61 422.73,1284.61 422.03,1287.76 C420.54,1294.43 416.23,1299.59 410.98,1301.00 C406.20,1302.29 263.98,1302.25 256.00,1300.96 C251.41,1300.22 249.97,1299.45 247.26,1296.29 C242.16,1290.31 240.72,1284.61 241.16,1271.98 C241.50,1261.81 241.72,1260.86 244.56,1256.82 C247.77,1252.23 250.49,1250.43 256.79,1249.63 L 264.67 1249.80 L 273.84 1250.00 L 274.50 1256.75 C275.55,1267.45 276.24,1268.58 280.75,1266.90 C282.65,1266.19 283.00,1265.32 283.01,1261.28 C283.02,1258.65 283.30,1254.81 283.64,1252.75 C284.19,1249.45 284.60,1249.00 287.09,1249.00 L 289.91 1249.00 L 287.61 1246.70 C289.95,1249.03 290.71,1249.18 297.55,1248.84 C301.42,1248.64 303.54,1248.38 305.05,1247.73 L 304.98 1247.77 C302.55,1249.05 302.57,1249.07 306.00,1248.79 L 309.50 1248.50 L 309.79 1257.29 C310.06,1265.55 310.23,1266.15 312.57,1267.21 C312.66,1267.25 312.75,1267.29 312.83,1267.33 C313.76,1267.76 314.50,1268.10 315.11,1267.94 C317.18,1267.36 317.60,1260.78 318.04,1230.92 C318.12,1239.58 318.38,1245.84 318.88,1246.77 C319.99,1248.86 320.73,1249.00 330.49,1249.00 C336.22,1249.00 342.01,1248.49 343.37,1247.88 C344.22,1247.49 344.79,1247.14 345.20,1246.38 C344.83,1247.11 344.35,1247.49 343.67,1247.82 L 341.50 1248.86 L 343.64 1248.93 C346.46,1249.02 347.00,1250.71 347.00,1259.47 C347.00,1266.73 347.02,1266.78 349.84,1267.19 C354.71,1267.90 355.00,1267.41 355.00,1258.42 L 355.00 1250.00 L 362.75 1249.81 C370.23,1249.62 370.29,1249.60 364.36,1249.26 C361.33,1249.09 359.24,1249.19 357.80,1248.28 C356.42,1247.40 355.63,1245.59 355.18,1241.71 C355.65,1245.33 356.47,1247.19 357.90,1248.14 C359.44,1249.16 361.70,1249.11 364.99,1249.04 C365.92,1249.02 366.93,1249.00 368.03,1249.00 C373.31,1249.00 376.01,1248.85 377.55,1248.35 C376.96,1248.65 376.27,1248.83 375.48,1248.95 C373.05,1249.32 373.42,1249.51 377.50,1249.95 L 382.50 1250.50 L 382.76 1256.50 C383.14,1265.49 383.67,1267.00 386.41,1267.00 C389.47,1267.00 390.00,1265.44 390.00,1256.42 C390.00,1249.01 390.00,1249.00 392.75,1248.92 L 395.50 1248.84 L 392.86 1247.87 C391.75,1247.47 390.98,1247.01 390.44,1246.03 ZM 221.87 258.57 C218.29,260.42 216.61,260.32 210.29,257.89 C203.72,255.37 200.00,251.13 200.00,246.17 C200.01,241.80 206.06,225.04 209.52,219.79 C213.55,213.70 221.07,212.91 230.23,217.63 C234.25,219.70 236.24,224.20 235.46,229.45 L 234.81 233.78 L 240.36 235.86 C243.42,237.01 247.04,238.22 248.42,238.57 C252.62,239.62 253.07,241.06 251.15,247.26 C250.19,250.38 249.11,253.22 248.76,253.58 C248.40,253.93 244.71,253.05 240.55,251.61 C230.03,247.98 228.70,248.12 226.47,253.07 C225.45,255.32 223.40,257.78 221.87,258.57 ZM 284.89 80.06 C280.18,82.58 268.80,79.87 264.71,75.27 C261.12,71.23 261.47,67.26 266.56,54.15 C272.25,39.52 274.53,37.00 282.06,37.00 C292.97,37.00 298.81,42.12 297.54,50.57 C296.77,55.71 297.72,56.54 308.29,59.98 C314.68,62.06 315.06,62.35 314.65,64.85 C313.48,72.02 312.70,75.07 311.92,75.55 C311.44,75.84 307.31,74.94 302.73,73.54 C291.44,70.10 290.67,70.18 288.47,75.06 C287.47,77.29 285.85,79.54 284.89,80.06 ZM 244.59 198.57 C239.99,201.80 228.18,199.17 223.36,193.84 C218.87,188.88 223.98,167.53 231.62,159.34 C234.44,156.31 235.27,156.00 240.41,156.00 C247.00,156.00 252.89,158.56 254.89,162.30 C255.65,163.71 256.06,166.76 255.85,169.39 L 255.48 174.01 L 261.99 176.47 C265.57,177.82 269.69,179.36 271.15,179.90 C273.80,180.87 273.80,180.90 272.37,185.19 C271.58,187.56 270.65,190.18 270.31,191.00 C269.96,191.82 269.77,192.88 269.87,193.34 C270.12,194.46 264.59,193.18 259.21,190.87 C252.43,187.97 250.60,188.35 248.47,193.07 C247.46,195.31 245.71,197.79 244.59,198.57 ZM 265.67 137.84 C262.43,140.89 258.31,141.22 252.03,138.95 C241.98,135.31 240.06,130.10 244.39,118.12 C251.33,98.95 254.20,95.53 262.79,96.24 C266.57,96.55 269.27,97.52 272.29,99.66 C276.47,102.62 276.50,102.69 276.36,108.57 C276.28,112.05 276.70,114.81 277.36,115.24 C277.99,115.64 281.65,117.17 285.50,118.62 C289.35,120.08 292.84,121.57 293.25,121.94 C294.11,122.70 290.20,135.00 289.10,135.00 C288.71,135.00 284.68,133.65 280.16,132.00 C275.64,130.35 271.54,129.00 271.05,129.00 C270.56,129.00 269.66,130.51 269.05,132.35 C268.44,134.20 266.92,136.67 265.67,137.84 ZM 317.80 214.03 C314.41,216.48 312.73,217.00 308.10,217.00 C298.44,216.99 292.83,211.61 292.83,202.34 C292.83,197.86 293.96,195.42 297.99,191.19 C300.81,188.23 304.10,187.00 309.20,187.00 C323.25,187.00 329.22,205.76 317.80,214.03 ZM 294.58 273.94 C292.58,275.81 290.64,276.45 286.24,276.71 C280.38,277.06 278.33,276.37 274.14,272.61 C267.10,266.29 268.79,253.51 277.35,248.45 C279.04,247.46 282.45,246.69 285.39,246.65 C294.64,246.52 300.43,252.17 300.22,261.12 C300.10,266.49 298.39,270.38 294.58,273.94 ZM 359.01 95.75 C352.76,100.00 343.27,97.69 338.82,90.83 C333.48,82.57 337.56,71.11 346.96,68.01 C352.56,66.17 357.47,67.43 362.35,71.98 C366.37,75.74 366.47,75.98 366.33,82.05 C366.17,88.97 364.57,91.96 359.01,95.75 ZM 336.97 155.69 C329.11,158.40 321.55,156.23 317.29,150.04 C314.80,146.43 314.95,137.89 317.56,134.39 C322.51,127.76 330.16,125.42 337.16,128.40 C342.99,130.88 345.00,134.22 345.00,141.49 C345.00,149.03 342.27,153.87 336.97,155.69 ZM 287.95 1005.22 C287.95,1006.80 287.94,1008.40 287.93,1010.00 C287.86,1034.47 287.68,1057.88 287.55,1062.00 C287.41,1066.12 287.17,1089.77 287.00,1114.54 C286.81,1142.92 286.96,1156.35 287.56,1160.48 C287.16,1158.56 286.83,1155.40 286.74,1152.29 C286.57,1146.80 287.23,1069.05 287.95,1005.22 ZM 309.61 1205.77 C309.76,1221.88 309.82,1231.41 309.49,1237.24 L 309.42 1207.04 C309.39,1193.58 309.33,1184.79 309.16,1179.00 C309.37,1184.67 309.49,1193.11 309.61,1205.77 ZM 319.96 1094.12 C319.88,1100.47 319.79,1106.35 319.71,1111.55 C320.02,1091.17 320.36,1060.69 320.60,1032.50 C320.93,991.67 321.24,971.88 321.78,963.28 C321.70,965.50 321.61,968.38 321.52,971.84 C321.18,985.41 320.84,1007.75 320.63,1032.50 C320.44,1053.46 320.20,1075.67 319.96,1094.06 ZM 353.89 956.65 C353.11,959.16 353.07,966.03 353.48,988.00 C353.75,1002.69 354.18,1038.26 354.49,1071.75 C354.54,1076.54 354.58,1081.28 354.62,1085.91 C354.62,1085.75 354.62,1085.58 354.62,1085.42 C354.29,1048.06 353.74,1004.12 353.39,987.76 C352.91,965.62 353.02,958.11 353.89,956.65 ZM 379.85 1245.49 C380.52,1242.25 380.77,1234.20 380.91,1212.46 C380.91,1219.92 380.91,1226.62 380.94,1230.50 C381.00,1238.36 380.78,1242.88 379.85,1245.49 ZM 318.62 1189.25 C318.96,1170.76 319.37,1166.20 320.34,1165.24 L 320.39 1165.18 C320.65,1164.92 320.85,1164.69 321.00,1164.45 C320.85,1164.69 320.65,1164.92 320.39,1165.18 C319.69,1165.88 319.06,1176.19 318.62,1189.25 ZM 258.05 1249.48 C259.29,1249.36 260.67,1249.26 262.20,1249.19 C269.40,1248.83 272.28,1248.77 273.65,1244.68 C272.33,1248.81 269.65,1248.97 263.13,1249.26 ZM 309.46 1129.11 C309.85,1109.55 310.07,1079.57 310.21,1035.00 C310.14,1070.47 309.87,1108.97 309.46,1129.11 ZM 288.64 965.75 C288.51,968.73 288.38,973.12 288.27,978.47 L 288.30 975.95 C288.36,971.80 288.45,968.45 288.64,965.75 ZM 389.49 1241.94 C389.26,1239.65 389.18,1236.40 389.11,1231.69 C389.16,1235.53 389.31,1239.42 389.49,1241.94 ZM 342.79 958.42 C342.51,957.17 342.16,956.74 341.71,956.25 C341.69,956.23 341.67,956.20 341.65,956.18 C341.72,956.25 341.79,956.31 341.86,956.38 C342.24,956.72 342.54,957.16 342.79,958.42 ZM 405.99 882.13 C405.01,881.84 404.30,881.81 403.63,881.95 C404.13,881.73 404.85,881.77 405.99,882.13 ZM 414.10 885.92 C419.27,888.62 427.55,892.09 432.50,893.63 C427.55,892.09 419.34,888.66 414.27,886.00 C413.83,885.77 413.41,885.55 413.01,885.35 C413.36,885.53 413.73,885.72 414.10,885.92 ZM 286.34 1245.40 C285.49,1244.38 285.09,1242.98 284.93,1237.83 C285.10,1242.96 285.50,1244.38 286.36,1245.43 C286.40,1245.48 286.44,1245.53 286.48,1245.58 C286.43,1245.52 286.38,1245.46 286.34,1245.40 ZM 307.24 1246.20 L 307.43 1246.01 C307.17,1246.32 306.88,1246.58 306.56,1246.82 C306.79,1246.64 307.01,1246.43 307.24,1246.20 Z" fill="rgb(87,91,97)"/>
<path d="M 388.10 374.53 C387.81,363.51 387.55,354.62 387.39,350.50 L 386.82 335.50 L 379.66 335.83 C375.72,336.01 372.12,336.52 371.66,336.97 C371.20,337.41 371.30,356.16 371.88,378.64 C372.12,387.59 372.37,398.00 372.61,408.31 L 346.48 283.03 C346.45,315.39 345.89,334.46 344.87,335.10 C343.00,336.29 342.26,336.21 341.31,334.75 C340.86,334.06 340.47,326.75 340.43,318.50 C340.40,311.75 340.16,283.66 339.87,251.34 L 319.22 152.36 C318.52,151.67 317.87,150.89 317.29,150.04 C315.38,147.28 315.02,141.62 316.13,137.55 L 302.78 73.56 C307.34,74.95 311.45,75.84 311.92,75.55 C312.70,75.07 313.48,72.02 314.65,64.85 C315.06,62.35 314.68,62.06 308.29,59.98 C303.56,58.44 300.75,57.42 299.17,56.31 L 299.20 56.33 C302.13,58.17 314.97,62.37 315.63,61.71 C315.90,61.43 317.40,57.67 318.96,53.35 C326.71,31.85 329.13,27.47 338.52,17.90 C342.87,13.46 346.90,10.65 353.86,7.19 L 363.31 2.50 L 376.65 2.15 C387.94,1.86 391.04,2.12 396.79,3.87 C409.75,7.80 423.56,19.06 429.76,30.73 C439.36,48.79 438.58,76.24 428.05,90.77 C426.47,92.95 420.20,98.96 414.12,104.12 C403.91,112.78 402.93,113.92 401.40,118.97 C398.41,128.76 399.96,139.45 408.26,166.50 C409.61,170.90 411.67,177.88 412.85,182.00 C414.02,186.12 417.29,197.60 420.10,207.50 C428.74,237.85 429.79,242.22 430.47,250.67 C431.58,264.49 429.51,268.25 415.73,277.39 C404.85,284.62 395.19,297.96 390.15,312.72 C387.54,320.39 387.50,320.85 387.68,345.50 C387.73,352.17 387.88,362.74 388.10,374.53 ZM 307.85 1160.25 C308.58,1156.92 309.09,1147.75 309.46,1129.11 C309.87,1108.97 310.14,1070.47 310.21,1035.00 L 310.21 1034.07 C310.26,1018.83 310.28,1006.48 310.27,996.48 C310.27,995.30 310.27,994.15 310.26,993.04 C310.24,979.45 310.15,970.62 309.97,964.99 C309.89,960.21 309.78,957.40 309.66,957.21 C309.20,956.49 309.26,955.37 309.78,954.71 C310.35,953.99 310.76,931.19 311.34,840.72 C310.83,929.16 310.97,951.50 311.97,953.93 C312.68,955.63 313.27,958.93 313.28,961.26 C313.35,972.20 313.37,1000.23 313.31,1006.50 C312.84,1052.12 312.54,1136.67 312.83,1140.75 C313.17,1145.61 314.53,1147.68 315.46,1144.75 C315.68,1144.06 316.11,1129.78 316.41,1113.00 C316.72,1096.22 317.23,1069.45 317.56,1053.50 C317.89,1037.55 317.78,1020.22 317.32,1015.00 C316.86,1009.78 316.82,1003.47 317.24,1001.00 C317.65,998.53 318.22,986.21 318.50,973.64 C318.78,961.07 319.20,950.49 319.42,950.12 C319.65,949.76 320.13,863.30 320.49,757.98 C320.79,670.83 321.18,596.39 321.43,572.89 C321.08,661.40 320.63,763.56 320.33,822.13 L 319.67 953.76 L 321.74 954.42 C323.33,954.92 323.62,955.22 322.96,956.79 C322.59,957.22 322.31,957.70 322.11,958.23 C322.01,958.50 321.90,960.27 321.78,963.28 C321.24,971.88 320.93,991.67 320.60,1032.50 C320.36,1060.69 320.02,1091.16 319.71,1111.54 L 319.71 1111.55 C319.59,1119.63 319.47,1126.08 319.38,1130.10 C319.26,1134.81 319.18,1138.85 319.14,1142.31 C318.99,1152.76 319.19,1156.66 319.91,1159.09 C320.15,1160.15 320.46,1160.94 320.83,1161.53 C321.38,1163.01 321.42,1163.75 321.00,1164.45 L 320.99 1164.45 L 320.99 1164.46 C320.84,1164.70 320.64,1164.93 320.39,1165.18 L 320.34 1165.24 C319.37,1166.20 318.96,1170.76 318.62,1189.25 C318.17,1202.70 317.93,1219.06 318.04,1230.92 C317.60,1260.78 317.18,1267.36 315.11,1267.94 C314.50,1268.10 313.76,1267.76 312.83,1267.33 C312.75,1267.29 312.66,1267.25 312.57,1267.21 C310.23,1266.15 310.06,1265.55 309.79,1257.29 L 309.50 1248.50 L 306.00 1248.79 C302.57,1249.07 302.55,1249.05 304.98,1247.77 L 305.05 1247.73 C305.62,1247.49 306.10,1247.19 306.56,1246.82 C306.88,1246.58 307.17,1246.32 307.43,1246.01 L 309.50 1243.94 L 309.49 1237.24 C309.67,1234.00 309.74,1229.60 309.73,1223.56 C310.00,1246.60 310.83,1262.09 311.99,1263.49 C312.72,1264.37 314.03,1264.95 314.91,1264.78 C317.35,1264.31 317.80,1256.30 318.09,1208.00 C318.31,1171.88 318.11,1163.74 316.88,1160.00 C316.07,1157.53 314.98,1155.57 314.46,1155.65 C313.93,1155.74 312.68,1158.21 311.68,1161.15 C310.13,1165.72 309.84,1170.36 309.68,1193.00 C309.64,1198.36 309.63,1203.54 309.63,1208.50 L 309.61 1205.77 C309.49,1193.11 309.37,1184.67 309.16,1179.00 C308.95,1171.40 308.55,1168.96 307.83,1167.87 C306.74,1166.22 306.55,1165.22 307.18,1162.79 C307.41,1162.07 307.64,1161.19 307.85,1160.25 ZM 317.80 214.03 C314.41,216.48 312.73,217.00 308.10,217.00 C298.44,216.99 292.83,211.61 292.83,202.34 C292.83,197.86 293.96,195.42 297.99,191.19 C300.81,188.23 304.10,187.00 309.20,187.00 C323.25,187.00 329.22,205.76 317.80,214.03 ZM 294.58 273.94 C292.58,275.81 290.64,276.45 286.24,276.71 C280.38,277.06 278.33,276.37 274.14,272.61 C267.10,266.29 268.79,253.51 277.35,248.45 C279.04,247.46 282.45,246.69 285.39,246.65 C294.64,246.52 300.43,252.17 300.22,261.12 C300.10,266.49 298.39,270.38 294.58,273.94 ZM 359.01 95.75 C364.57,91.96 366.17,88.97 366.33,82.05 C366.47,75.98 366.37,75.74 362.35,71.98 C357.47,67.43 352.56,66.17 346.96,68.01 C337.56,71.11 333.48,82.57 338.82,90.83 C343.27,97.69 352.76,100.00 359.01,95.75 ZM 287.95 1005.22 C287.23,1069.05 286.57,1146.80 286.74,1152.29 C286.83,1155.40 287.16,1158.56 287.56,1160.48 C287.65,1161.12 287.75,1161.54 287.87,1161.75 C287.87,1161.76 287.88,1161.78 287.89,1161.79 C288.70,1163.31 288.76,1164.58 288.08,1165.86 C285.90,1169.92 284.96,1182.20 284.87,1207.74 C284.86,1209.46 284.86,1211.10 284.85,1212.67 C284.83,1200.32 284.85,1183.39 284.91,1160.32 C284.96,1134.41 284.61,1116.11 284.03,1114.57 C283.39,1112.90 283.39,1111.10 284.03,1109.43 C284.58,1107.96 285.00,1094.69 284.99,1078.68 C284.96,1035.42 286.01,981.94 287.17,967.50 C287.75,960.35 288.39,943.47 288.60,930.00 C288.78,918.10 288.96,906.00 289.15,893.91 C289.04,904.12 288.97,913.07 288.95,919.50 L 288.83 953.50 L 293.17 954.10 C295.97,954.49 296.54,954.75 294.77,954.85 C291.96,955.01 290.36,956.06 289.45,959.76 C289.28,960.31 289.12,960.93 288.96,961.61 C288.85,962.08 288.75,963.52 288.64,965.75 C288.45,968.45 288.36,971.80 288.30,975.95 L 288.27 978.47 C288.12,985.93 288.01,995.25 287.95,1005.22 ZM 348.95 1117.42 C348.92,1116.36 348.59,1113.03 348.22,1110.00 C347.29,1102.44 347.32,998.35 348.25,997.42 C348.66,997.00 349.24,996.91 349.53,997.20 C350.78,998.45 351.95,1095.11 350.91,1111.18 C350.51,1117.31 349.07,1121.88 348.95,1117.42 ZM 258.05 1249.48 L 263.13 1249.26 C269.65,1248.97 272.33,1248.81 273.65,1244.68 C274.42,1242.39 274.72,1238.82 275.04,1233.23 C274.88,1239.46 274.77,1243.44 274.74,1244.00 C274.34,1251.94 275.12,1258.98 276.57,1260.43 C277.44,1261.29 278.71,1262.00 279.41,1262.00 C281.20,1262.00 283.00,1257.58 283.00,1253.18 C283.00,1251.12 283.70,1248.44 284.56,1247.22 C285.41,1246.00 285.84,1244.56 285.51,1244.02 C285.41,1243.85 285.32,1243.36 285.25,1242.39 C285.48,1244.03 285.82,1244.78 286.34,1245.40 C286.38,1245.46 286.43,1245.52 286.48,1245.58 C286.79,1245.92 287.14,1246.23 287.56,1246.65 L 287.61 1246.70 L 287.62 1246.71 L 289.91 1249.00 L 287.09 1249.00 C284.60,1249.00 284.19,1249.45 283.64,1252.75 C283.30,1254.81 283.02,1258.65 283.01,1261.28 C283.00,1265.32 282.65,1266.19 280.75,1266.90 C276.24,1268.58 275.55,1267.45 274.50,1256.75 L 273.84 1250.00 L 264.67 1249.80 L 256.79 1249.63 C257.20,1249.57 257.61,1249.53 258.05,1249.48 ZM 379.13 1247.35 C379.41,1247.00 379.65,1246.46 379.85,1245.49 C380.34,1244.12 380.63,1242.23 380.79,1239.61 C380.63,1242.38 380.40,1244.46 380.12,1245.18 C379.29,1247.37 379.43,1247.88 380.95,1248.28 C382.31,1248.63 382.97,1250.14 383.50,1254.13 C383.90,1257.08 384.70,1260.09 385.28,1260.80 C386.13,1261.86 386.61,1261.82 387.84,1260.59 C388.95,1259.47 389.41,1252.06 389.21,1236.63 C389.27,1238.82 389.35,1240.55 389.49,1241.94 C389.57,1243.10 389.65,1243.96 389.74,1244.40 C389.85,1245.02 390.08,1245.56 390.44,1246.03 C390.98,1247.01 391.75,1247.47 392.86,1247.87 L 395.50 1248.84 L 392.75 1248.92 C390.00,1249.00 390.00,1249.01 390.00,1256.42 C390.00,1265.44 389.47,1267.00 386.41,1267.00 C383.67,1267.00 383.14,1265.49 382.76,1256.50 L 382.50 1250.50 L 377.50 1249.95 C373.42,1249.51 373.05,1249.32 375.48,1248.95 C376.27,1248.83 376.96,1248.65 377.55,1248.35 C378.30,1248.11 378.77,1247.78 379.13,1247.35 ZM 67.18 1147.47 C64.74,1154.74 63.72,1158.57 64.46,1160.66 C64.66,1162.39 64.06,1163.32 61.96,1164.87 C60.35,1166.06 58.29,1168.49 57.38,1170.27 C57.24,1170.53 57.10,1170.80 56.96,1171.05 C57.22,1170.44 57.44,1169.78 57.57,1169.18 C57.88,1167.71 59.31,1163.57 60.73,1160.00 C62.67,1155.15 64.36,1151.30 69.81,1139.54 C68.96,1141.86 68.03,1144.67 67.18,1147.47 ZM 598.68 1153.28 C598.19,1151.10 597.19,1148.39 595.26,1143.95 C599.10,1152.22 603.81,1162.26 610.09,1175.56 C611.51,1178.57 613.25,1182.37 615.32,1186.99 C607.78,1170.46 604.99,1166.36 602.24,1165.05 C599.60,1163.80 599.09,1163.40 599.07,1160.16 L 599.20 1158.25 C599.30,1156.68 599.21,1155.28 598.68,1153.28 ZM 348.09 1265.08 C350.59,1266.66 353.03,1266.06 353.95,1263.63 C354.72,1261.59 354.96,1259.42 354.86,1238.18 C354.94,1239.51 355.04,1240.68 355.18,1241.71 C355.63,1245.59 356.42,1247.40 357.80,1248.28 C359.24,1249.19 361.33,1249.09 364.36,1249.26 C370.29,1249.60 370.23,1249.62 362.75,1249.81 L 355.00 1250.00 L 355.00 1258.42 C355.00,1267.41 354.71,1267.90 349.84,1267.19 C347.03,1266.78 347.00,1266.73 347.00,1259.59 C347.19,1263.39 347.53,1264.73 348.09,1265.08 ZM 346.81 1226.93 C346.82,1230.33 346.83,1233.57 346.81,1236.51 C346.78,1243.96 346.78,1249.52 346.83,1253.64 C346.52,1249.89 345.67,1249.00 343.64,1248.93 L 341.50 1248.86 L 343.67 1247.82 C344.35,1247.49 344.83,1247.11 345.20,1246.38 C345.89,1245.12 346.14,1242.72 346.56,1237.13 C346.70,1235.20 346.79,1231.57 346.81,1226.93 ZM 405.99 882.13 C404.85,881.77 404.13,881.73 403.63,881.95 C403.28,882.03 402.93,882.16 402.56,882.34 C402.15,882.53 401.81,882.73 401.52,882.94 C401.09,882.47 400.79,880.94 400.53,877.37 L 404.41 880.21 C406.16,881.48 408.33,882.84 410.77,884.20 C408.59,883.11 407.11,882.45 405.99,882.13 ZM 400.03 866.28 C399.75,858.05 399.47,846.00 399.04,828.50 C398.48,805.40 397.56,762.42 397.00,733.00 C396.86,725.61 396.70,717.81 396.53,710.04 C396.88,725.05 397.23,741.17 397.54,756.50 C398.37,797.20 399.33,841.01 399.68,853.86 ZM 223.62 175.22 C221.65,182.04 221.01,188.91 222.50,192.45 C222.24,192.04 222.03,191.62 221.87,191.21 C221.29,189.72 221.05,186.43 221.34,183.90 C221.60,181.64 222.46,178.51 223.62,175.22 ZM 295.22 501.76 C295.51,481.00 295.77,451.56 295.85,427.62 C295.95,399.18 296.23,375.12 296.50,370.62 C296.19,387.51 295.90,415.30 295.82,437.50 C295.75,457.16 295.50,482.68 295.22,501.76 ZM 571.33 1082.24 C571.29,1082.06 571.25,1081.87 571.21,1081.68 C570.99,1080.67 570.76,1079.62 570.53,1078.54 L 570.53 1078.50 C568.41,1068.47 567.82,1056.68 568.68,1045.08 C567.84,1057.24 568.74,1069.80 571.33,1082.24 ZM 292.74 650.66 C293.01,636.74 293.36,615.69 293.61,597.00 C293.81,583.06 294.08,565.86 294.35,550.17 C294.08,566.15 293.81,583.87 293.61,598.50 C293.36,618.13 293.01,638.47 292.74,650.66 ZM 265.67 137.84 C266.92,136.67 268.44,134.20 269.05,132.35 C267.64,136.62 265.38,139.14 262.08,139.99 C263.41,139.57 264.59,138.86 265.67,137.84 ZM 245.85 135.74 C241.32,132.25 241.14,127.13 244.39,118.12 C241.18,127.02 241.40,132.18 245.85,135.74 ZM 80.58 1113.76 C83.64,1106.47 86.52,1099.60 86.97,1098.50 C87.29,1097.73 87.60,1096.94 87.91,1096.16 C87.60,1096.94 87.29,1097.73 86.97,1098.50 C86.52,1099.60 83.89,1105.90 81.12,1112.50 C78.76,1118.12 76.26,1124.30 75.04,1127.52 C75.37,1126.39 77.74,1120.51 80.58,1113.76 ZM 233.68 220.63 C235.48,222.91 236.01,225.77 235.46,229.45 C235.97,226.04 235.31,222.95 233.68,220.63 ZM 221.74 214.75 C216.67,214.04 212.53,215.59 209.83,219.35 C212.59,215.51 216.76,213.91 221.74,214.75 ZM 380.91 1222.07 C380.93,1224.66 380.96,1227.31 380.98,1230.03 C381.01,1232.88 380.97,1235.71 380.86,1238.16 C380.94,1236.05 380.96,1233.52 380.94,1230.50 C380.93,1228.40 380.92,1225.48 380.91,1222.07 ZM 394.88 649.55 C394.41,636.18 393.77,613.26 393.27,592.90 C393.76,612.61 394.40,635.37 394.88,649.55 ZM 432.53 893.61 C437.41,895.14 442.71,896.06 448.23,896.39 C442.70,896.07 437.40,895.15 432.50,893.63 L 432.50 893.63 C431.45,893.30 430.26,892.89 428.98,892.42 C430.19,892.85 431.37,893.25 432.53,893.61 ZM 391.22 505.81 C391.15,503.05 391.08,500.43 391.02,498.00 C390.82,489.94 390.57,479.70 390.31,468.72 C390.63,481.90 390.94,494.21 391.22,505.81 ZM 263.95 890.68 C264.35,870.68 264.67,854.42 264.91,841.19 C264.67,854.48 264.35,870.85 263.95,891.00 C263.66,905.31 263.49,918.85 263.43,928.84 C263.48,918.73 263.66,905.05 263.95,890.68 ZM 245.73 197.47 C246.67,196.36 247.71,194.72 248.42,193.18 C247.57,195.03 246.72,196.43 245.73,197.47 ZM 49.93 1183.84 C48.34,1187.16 47.00,1190.13 47.00,1190.51 C47.00,1190.04 48.31,1187.14 49.93,1183.84 ZM 73.55 1131.47 C73.13,1132.49 72.72,1133.37 72.41,1133.93 L 73.11 1132.43 C73.26,1132.11 73.41,1131.78 73.55,1131.47 ZM 230.90 198.50 C232.15,198.95 233.43,199.30 234.71,199.55 C233.42,199.32 232.13,198.96 230.90,198.50 ZM 55.70 1173.17 C55.53,1173.42 55.38,1173.62 55.26,1173.77 C55.44,1173.48 55.59,1173.28 55.69,1173.18 Z" fill="rgb(119,137,134)"/>
<path d="M 274.90 1154.44 C275.09,1152.59 275.29,1148.45 275.47,1143.05 C275.72,1136.17 275.87,1127.41 275.95,1116.54 C276.05,1100.06 276.29,1086.33 276.48,1086.04 C276.85,1085.43 278.50,991.80 278.50,971.17 C278.50,955.55 277.98,954.54 270.71,956.18 C268.27,956.73 230.69,957.20 181.43,957.31 C104.15,957.48 96.21,957.65 94.72,959.14 C93.45,960.41 93.37,961.67 95.61,972.19 C94.62,967.87 93.47,963.11 92.15,957.79 L 91.23 954.09 L 108.37 953.79 C117.79,953.63 155.83,953.37 192.91,953.20 C237.64,953.00 260.98,952.55 262.28,951.85 C264.01,950.93 264.17,950.12 263.61,945.33 C263.55,944.81 263.50,943.67 263.47,942.00 C263.50,943.66 263.55,944.77 263.61,945.22 C264.22,949.64 264.52,950.03 268.38,951.40 C277.68,954.72 278.97,954.76 279.08,951.75 C279.13,950.51 279.30,948.38 279.46,947.00 C279.63,945.62 280.04,918.40 280.38,886.50 C281.13,817.07 281.81,771.36 283.04,709.00 C283.54,683.42 284.41,625.15 284.97,579.50 C285.53,533.85 286.44,473.24 286.99,444.82 C287.55,416.39 288.00,380.28 288.00,364.57 L 288.00 336.00 L 275.00 336.00 L 274.99 353.75 C274.99,355.89 274.95,359.40 274.89,363.96 C274.75,379.77 274.28,403.33 273.51,439.00 C274.14,410.00 274.68,380.25 274.89,363.96 C275.11,340.23 274.62,333.94 273.41,330.28 C270.10,320.36 264.97,314.67 249.23,303.44 C237.21,294.87 236.35,289.53 243.59,268.30 C246.11,260.90 247.98,254.65 247.75,254.42 C246.86,253.53 235.59,249.88 231.73,249.13 C230.28,248.99 229.30,249.23 228.51,249.88 C227.99,250.37 227.49,251.09 226.93,252.09 C226.78,252.40 226.63,252.72 226.47,253.07 C226.21,253.64 225.89,254.22 225.53,254.78 C223.99,257.43 222.25,258.94 219.91,259.44 C217.44,260.29 215.36,259.84 210.29,257.89 C205.69,256.12 202.48,253.51 200.98,250.41 C200.34,249.12 200.00,247.76 200.00,246.35 C200.00,246.33 200.01,246.31 200.01,246.29 C200.00,246.25 200.00,246.21 200.00,246.17 C200.01,243.87 201.69,238.14 203.78,232.46 C201.70,238.12 200.04,243.86 200.01,246.29 C200.02,247.73 200.35,249.11 200.98,250.41 C202.70,253.87 206.65,256.79 212.20,258.54 C215.39,259.54 217.87,259.87 219.91,259.44 C220.52,259.23 221.16,258.94 221.87,258.57 C223.01,257.98 224.45,256.45 225.53,254.78 C225.79,254.33 226.04,253.85 226.29,253.34 C226.51,252.88 226.72,252.47 226.93,252.09 C227.43,251.11 227.91,250.37 228.51,249.88 C229.18,249.25 229.87,249.00 230.72,249.00 C230.94,249.00 231.29,249.05 231.73,249.13 C233.64,249.32 236.37,250.17 240.55,251.61 C244.71,253.05 248.40,253.93 248.76,253.58 C249.11,253.22 250.19,250.38 251.15,247.26 C252.66,242.39 252.71,240.46 250.62,239.34 C249.20,238.99 247.17,238.30 244.17,237.23 C242.93,236.80 241.60,236.33 240.36,235.86 L 234.81 233.78 L 240.15 235.76 C241.65,236.31 242.99,236.80 244.17,237.23 C245.99,237.85 247.60,238.36 248.42,238.57 C249.32,238.80 250.05,239.04 250.62,239.34 C252.93,239.93 253.60,239.66 254.10,238.87 C254.58,238.12 254.98,236.98 254.98,236.35 C254.99,235.71 258.18,226.49 262.07,215.85 C266.47,203.80 268.83,196.00 268.32,195.17 C267.95,194.58 266.27,193.64 264.09,192.69 C262.57,192.21 260.88,191.59 259.21,190.87 C258.96,190.77 258.71,190.66 258.48,190.57 C256.61,189.97 254.82,189.49 253.44,189.29 C252.85,189.20 252.36,189.14 251.94,189.15 C253.41,188.78 255.40,189.29 258.48,190.57 C260.40,191.19 262.40,191.94 264.09,192.69 C267.47,193.74 270.04,194.11 269.87,193.34 C269.77,192.88 269.96,191.82 270.31,191.00 C270.65,190.18 271.58,187.56 272.37,185.19 C273.80,180.90 273.80,180.87 271.15,179.90 C270.79,179.76 270.25,179.56 269.59,179.32 C268.02,178.80 265.95,178.00 263.17,176.94 L 255.56 174.04 L 255.48 174.01 L 255.48 174.01 L 255.56 174.04 L 261.99 176.47 C264.67,177.48 267.65,178.59 269.59,179.32 C271.86,180.06 273.11,180.21 273.96,179.71 C274.90,179.14 275.35,177.77 276.18,175.50 C282.70,157.65 290.17,135.85 289.87,135.60 C289.68,135.45 288.22,134.87 286.18,134.12 C284.56,133.58 282.43,132.83 280.16,132.00 C279.25,131.67 278.35,131.35 277.50,131.05 C274.20,129.92 271.43,129.02 271.04,129.00 C270.54,129.02 269.65,130.52 269.05,132.35 C269.66,130.51 270.55,129.00 271.03,129.00 C271.03,129.00 271.03,129.00 271.04,129.00 C271.04,129.00 271.04,129.00 271.05,129.00 C271.44,129.00 274.13,129.86 277.50,131.05 C280.40,132.04 283.72,133.21 286.18,134.12 C287.80,134.66 288.90,135.00 289.10,135.00 C290.20,135.00 294.11,122.70 293.25,121.94 C292.98,121.69 291.36,120.96 289.18,120.07 C285.66,118.80 281.28,117.10 278.83,115.98 C278.54,115.84 278.28,115.72 278.05,115.59 C277.72,115.44 277.48,115.32 277.36,115.24 C277.26,115.17 277.16,115.04 277.07,114.86 C276.27,113.97 276.23,112.51 276.33,108.70 C276.50,102.67 276.49,102.64 272.29,99.66 C270.92,98.69 269.61,97.96 268.25,97.42 C269.62,97.96 270.92,98.69 272.29,99.66 C276.47,102.62 276.50,102.69 276.36,108.57 C276.30,111.50 276.58,113.91 277.07,114.86 C277.31,115.14 277.64,115.37 278.05,115.59 C279.42,116.23 282.40,117.45 285.50,118.62 C286.80,119.11 288.06,119.61 289.18,120.07 C292.11,121.12 294.45,121.88 294.59,121.74 C294.88,121.46 302.25,101.32 306.24,90.11 L 316.13 137.55 C315.02,141.62 315.38,147.28 317.29,150.04 C317.87,150.89 318.52,151.67 319.22,152.36 L 339.87 251.34 C340.16,283.66 340.40,311.75 340.43,318.50 C340.47,326.75 340.86,334.06 341.31,334.75 C342.26,336.21 343.00,336.29 344.87,335.10 C345.89,334.46 346.45,315.39 346.48,283.03 L 357.53 336.01 C356.86,336.00 356.12,336.00 355.31,336.00 L 346.76 336.00 L 347.37 365.25 C347.71,381.34 348.23,452.10 348.53,522.50 C348.82,592.90 349.26,654.78 349.50,660.00 C349.74,665.22 350.26,715.40 350.66,771.50 C351.06,827.60 351.46,873.84 351.57,874.25 C351.67,874.66 351.81,892.29 351.88,913.43 C351.98,947.21 352.19,952.05 353.60,953.46 C354.41,954.26 354.74,954.80 354.62,955.39 C354.53,955.48 354.45,955.58 354.37,955.68 C354.19,955.91 354.03,956.21 353.89,956.65 C353.02,958.11 352.91,965.62 353.39,987.76 C353.74,1004.12 354.29,1048.06 354.62,1085.42 L 354.62 1085.91 C354.63,1086.78 354.63,1087.63 354.64,1088.48 L 354.64 1088.48 C354.95,1123.13 355.30,1142.74 355.82,1151.98 C355.98,1155.13 356.16,1157.07 356.35,1157.83 L 356.98 1160.39 C357.43,1162.65 357.17,1163.41 356.09,1164.48 C354.69,1165.89 354.51,1170.76 354.55,1205.49 C354.56,1209.07 354.56,1212.35 354.56,1215.36 L 354.56 1215.37 C354.55,1225.92 354.54,1233.18 354.86,1238.18 C354.96,1259.42 354.72,1261.59 353.95,1263.63 C353.03,1266.06 350.59,1266.66 348.09,1265.08 C347.53,1264.73 347.19,1263.39 347.00,1259.59 L 347.00 1259.47 C347.00,1257.01 346.96,1255.11 346.83,1253.64 C346.78,1249.52 346.78,1243.96 346.81,1236.51 C346.83,1233.57 346.82,1230.33 346.81,1226.93 C346.85,1218.81 346.70,1207.57 346.39,1196.85 C345.60,1169.76 345.30,1165.98 343.74,1164.26 C342.14,1162.49 342.11,1161.99 343.42,1158.84 C343.77,1158.01 344.06,1156.98 344.29,1155.27 C345.42,1148.05 345.32,1128.64 344.54,1042.50 C343.95,977.71 343.80,962.87 342.79,958.42 C342.54,957.16 342.24,956.72 341.86,956.38 C341.79,956.31 341.72,956.25 341.65,956.18 C341.47,955.99 341.30,955.82 341.12,955.66 C339.46,953.91 339.81,953.00 342.15,953.00 L 344.29 953.00 L 343.64 828.75 C343.28,760.41 342.76,685.15 342.49,661.50 C342.22,637.85 341.52,562.70 340.93,494.50 C340.34,426.30 339.78,362.85 339.68,353.50 L 339.50 336.50 L 330.92 336.21 L 322.33 335.93 L 321.66 513.21 C321.59,531.84 321.51,551.98 321.43,572.89 C321.18,596.39 320.79,670.83 320.49,757.98 C320.13,863.30 319.65,949.76 319.42,950.12 C319.20,950.49 318.78,961.07 318.50,973.64 C318.22,986.21 317.65,998.53 317.24,1001.00 C316.82,1003.47 316.86,1009.78 317.32,1015.00 C317.78,1020.22 317.89,1037.55 317.56,1053.50 C317.23,1069.45 316.72,1096.22 316.41,1113.00 C316.11,1129.78 315.68,1144.06 315.46,1144.75 C314.53,1147.68 313.17,1145.61 312.83,1140.75 C312.54,1136.67 312.84,1052.12 313.31,1006.50 C313.37,1000.23 313.35,972.20 313.28,961.26 C313.27,958.93 312.68,955.63 311.97,953.93 C310.97,951.50 310.83,929.16 311.34,840.72 C311.76,776.04 312.27,676.75 313.00,526.21 C313.50,423.20 313.65,338.26 313.35,337.46 C312.92,336.35 310.90,336.00 305.05,336.00 L 297.31 336.00 L 296.65 363.25 C296.60,365.36 296.55,367.84 296.50,370.62 C296.23,375.12 295.95,399.18 295.85,427.62 C295.77,451.56 295.51,481.00 295.22,501.76 C295.13,507.78 295.04,513.15 294.95,517.50 C294.77,525.59 294.56,537.32 294.35,550.17 L 294.34 550.18 C294.08,565.87 293.81,583.07 293.61,597.00 C293.36,615.69 293.01,636.73 292.74,650.66 L 292.74 650.66 C292.65,654.86 292.57,658.10 292.50,660.00 C292.23,667.42 291.78,696.45 291.48,724.50 C291.18,752.55 290.52,800.25 290.00,830.50 C289.67,850.35 289.34,874.42 289.15,893.91 C288.96,906.00 288.78,918.10 288.60,930.00 C288.39,943.47 287.75,960.35 287.17,967.50 C286.01,981.94 284.96,1035.42 284.99,1078.68 C285.00,1094.69 284.58,1107.96 284.03,1109.43 C283.39,1111.10 283.39,1112.90 284.03,1114.57 C284.61,1116.11 284.96,1134.41 284.91,1160.32 C284.85,1183.39 284.83,1200.32 284.85,1212.66 L 284.85 1212.67 L 284.85 1213.16 L 284.85 1213.16 C284.80,1225.83 284.77,1233.29 284.93,1237.83 C284.99,1239.87 285.09,1241.32 285.25,1242.39 C285.32,1243.36 285.41,1243.85 285.51,1244.02 C285.84,1244.56 285.41,1246.00 284.56,1247.22 C283.70,1248.44 283.00,1251.12 283.00,1253.18 C283.00,1257.58 281.20,1262.00 279.41,1262.00 C278.71,1262.00 277.44,1261.29 276.57,1260.43 C275.12,1258.98 274.34,1251.94 274.74,1244.00 C274.77,1243.44 274.88,1239.46 275.04,1233.23 C275.11,1231.99 275.18,1230.65 275.26,1229.20 C275.73,1220.56 275.97,1204.05 275.80,1192.50 C275.53,1174.54 275.22,1171.02 273.68,1168.18 C272.34,1165.72 272.16,1164.51 272.97,1163.54 C273.61,1162.76 274.14,1160.65 274.56,1156.99 C274.69,1156.17 274.80,1155.31 274.90,1154.44 ZM 377.97 1102.53 C377.49,1071.71 376.80,1026.47 376.44,1002.00 C376.15,982.28 376.11,970.52 375.51,963.53 C375.21,958.25 374.82,956.43 374.24,955.77 C372.88,954.22 372.91,953.97 374.52,953.36 C376.21,952.70 376.27,950.36 375.60,907.90 C375.21,883.28 374.73,862.09 374.53,860.81 C374.33,859.54 373.90,838.25 373.57,813.50 C373.25,788.75 372.76,759.28 372.50,748.00 C372.23,736.72 371.77,708.15 371.48,684.50 C370.98,643.29 370.59,627.22 369.50,602.00 C369.22,595.67 368.76,572.50 368.47,550.50 C368.17,528.50 367.75,509.38 367.52,508.00 C367.29,506.62 366.86,483.23 366.55,456.00 C366.16,421.75 365.78,393.89 365.42,373.83 L 372.61 408.31 C372.98,423.89 373.31,439.24 373.50,449.00 C374.03,477.50 375.40,545.87 376.46,597.50 C376.75,611.25 377.22,637.35 377.50,655.50 C377.79,673.65 378.25,695.25 378.53,703.50 C378.81,711.75 379.47,746.40 380.01,780.50 C380.54,814.60 381.20,847.67 381.47,854.00 C381.74,860.33 382.25,885.22 382.61,909.33 C383.13,944.86 383.51,953.26 384.61,953.68 C385.59,954.06 385.69,954.70 384.99,956.03 C384.82,956.34 384.69,957.44 384.61,959.28 L 384.61 959.29 C384.38,964.19 384.49,974.34 384.95,990.18 C384.97,990.66 384.98,991.17 385.00,991.69 C385.01,992.17 385.03,992.67 385.04,993.18 C385.57,1012.63 386.45,1054.82 387.06,1090.00 C387.69,1127.12 388.58,1158.96 389.03,1160.76 C389.60,1163.03 389.40,1164.90 388.37,1166.97 C387.10,1169.51 387.04,1173.54 387.93,1195.71 C388.50,1209.90 389.03,1226.09 389.11,1231.69 C389.14,1233.56 389.17,1235.19 389.21,1236.63 C389.41,1252.06 388.95,1259.47 387.84,1260.59 C386.61,1261.82 386.13,1261.86 385.28,1260.80 C384.70,1260.09 383.90,1257.08 383.50,1254.13 C382.97,1250.14 382.31,1248.63 380.95,1248.28 C379.43,1247.88 379.29,1247.37 380.12,1245.18 C380.40,1244.46 380.63,1242.38 380.79,1239.61 C380.82,1239.15 380.84,1238.67 380.86,1238.16 C380.97,1235.71 381.01,1232.88 380.98,1230.03 C380.96,1227.31 380.93,1224.66 380.91,1222.07 C380.91,1219.16 380.91,1215.89 380.91,1212.47 L 380.91 1212.46 C380.95,1206.99 380.98,1200.64 381.00,1193.28 C381.08,1172.31 380.86,1168.72 379.43,1166.53 C378.42,1164.99 377.97,1162.92 378.30,1161.25 C378.44,1160.51 378.48,1153.76 378.42,1143.44 C378.41,1134.02 378.25,1120.79 377.97,1102.53 ZM 311.99 1263.49 C310.83,1262.09 310.00,1246.60 309.73,1223.56 C309.73,1219.38 309.69,1214.41 309.63,1208.50 C309.63,1203.54 309.64,1198.36 309.68,1193.00 C309.84,1170.36 310.13,1165.72 311.68,1161.15 C312.68,1158.21 313.93,1155.74 314.46,1155.65 C314.98,1155.57 316.07,1157.53 316.88,1160.00 C318.11,1163.74 318.31,1171.88 318.09,1208.00 C317.80,1256.30 317.35,1264.31 314.91,1264.78 C314.03,1264.95 312.72,1264.37 311.99,1263.49 ZM 317.80 214.03 C329.22,205.76 323.25,187.00 309.20,187.00 C304.10,187.00 300.81,188.23 297.99,191.19 C293.96,195.42 292.83,197.86 292.83,202.34 C292.83,211.61 298.44,216.99 308.10,217.00 C312.73,217.00 314.41,216.48 317.80,214.03 ZM 294.58 273.94 C298.39,270.38 300.10,266.49 300.22,261.12 C300.43,252.17 294.64,246.52 285.39,246.65 C282.45,246.69 279.04,247.46 277.35,248.45 C268.79,253.51 267.10,266.29 274.14,272.61 C278.33,276.37 280.38,277.06 286.24,276.71 C290.64,276.45 292.58,275.81 294.58,273.94 ZM 348.95 1117.42 C349.07,1121.88 350.51,1117.31 350.91,1111.18 C351.95,1095.11 350.78,998.45 349.53,997.20 C349.24,996.91 348.66,997.00 348.25,997.42 C347.32,998.35 347.29,1102.44 348.22,1110.00 C348.59,1113.03 348.92,1116.36 348.95,1117.42 ZM 500.51 1512.82 C500.55,1538.69 500.89,1559.22 501.29,1559.62 C501.97,1560.30 506.31,1560.27 509.18,1559.80 C508.28,1560.06 507.32,1560.30 506.50,1560.47 C504.85,1560.82 502.38,1561.37 501.00,1561.71 C498.98,1562.21 498.69,1562.05 499.51,1560.91 C500.12,1560.06 500.47,1542.92 500.51,1512.82 ZM 69.86 1139.41 L 69.81 1139.54 C64.36,1151.30 62.67,1155.15 60.73,1160.00 C59.31,1163.57 57.88,1167.71 57.57,1169.18 C57.44,1169.78 57.22,1170.44 56.96,1171.05 C56.52,1171.87 56.07,1172.63 55.70,1173.17 L 55.69 1173.18 C55.59,1173.28 55.44,1173.48 55.26,1173.77 C55.17,1173.88 55.09,1173.96 55.03,1174.00 C54.72,1174.23 52.90,1177.74 51.08,1181.47 C52.73,1177.88 54.01,1174.61 54.01,1173.91 C54.02,1173.14 55.18,1170.47 56.60,1168.00 C58.02,1165.53 60.31,1160.80 61.69,1157.50 C63.07,1154.20 65.78,1148.12 67.71,1144.00 C68.51,1142.29 69.22,1140.77 69.86,1139.41 ZM 97.91 982.75 C100.70,995.78 101.27,1000.83 101.69,1013.50 C101.36,1003.59 100.38,994.94 97.91,982.75 ZM 512.32 1558.71 C513.52,1558.25 515.73,1557.60 518.00,1557.06 C518.17,1557.02 518.33,1556.98 518.50,1556.94 C516.27,1557.49 513.77,1558.22 512.32,1558.71 ZM 73.55 1131.47 C73.41,1131.78 73.26,1132.11 73.11,1132.43 L 72.41 1133.93 L 72.38 1133.99 C72.91,1132.84 73.34,1131.90 73.68,1131.15 C73.64,1131.25 73.59,1131.36 73.55,1131.47 ZM 290.59 71.76 C292.30,70.50 295.14,71.23 302.73,73.54 C295.14,71.23 292.30,70.51 290.59,71.76 Z" fill="rgb(142,154,159)"/>
<path d="M 500.51 1512.82 C500.47,1542.92 500.12,1560.06 499.51,1560.91 C499.03,1561.57 498.93,1561.90 499.33,1561.97 C478.44,1566.26 472.78,1566.92 438.00,1570.25 C420.47,1571.93 257.83,1571.96 238.50,1570.29 C215.61,1568.30 197.92,1566.12 192.55,1564.60 C189.77,1563.82 185.48,1562.88 183.00,1562.53 C180.52,1562.17 177.38,1561.51 176.00,1561.05 C174.62,1560.60 171.48,1559.69 169.00,1559.04 C166.52,1558.38 161.57,1556.99 158.00,1555.94 C154.43,1554.89 149.93,1553.61 148.00,1553.10 C143.47,1551.89 133.46,1548.32 129.00,1546.33 C117.67,1541.27 112.27,1538.77 110.50,1537.77 C109.40,1537.16 105.57,1535.08 102.00,1533.17 C81.62,1522.25 56.27,1501.07 42.37,1483.33 C29.17,1466.50 20.17,1451.72 15.01,1438.43 C11.42,1429.15 5.93,1409.40 6.73,1408.60 C7.04,1408.30 6.82,1407.47 6.26,1406.77 C4.39,1404.46 3.17,1396.20 2.45,1381.00 C2.20,1375.78 1.79,1368.66 1.53,1365.18 C1.33,1362.47 1.41,1357.34 1.71,1352.56 C1.42,1357.34 1.38,1362.33 1.64,1364.80 L 2.23 1370.50 L 206.05 1370.50 C396.95,1370.50 410.52,1370.50 423.31,1373.67 C424.34,1373.93 425.38,1374.21 426.50,1374.51 C431.98,1375.98 451.03,1384.33 457.72,1388.19 C461.90,1390.60 466.79,1395.74 476.50,1407.92 C490.61,1425.62 492.72,1429.46 498.33,1447.50 C500.44,1454.31 500.50,1455.92 500.50,1506.67 C500.50,1508.75 500.50,1510.80 500.51,1512.82 ZM 505.45 1560.70 C505.82,1560.62 506.18,1560.54 506.50,1560.47 C507.32,1560.30 508.28,1560.06 509.18,1559.80 C508.28,1560.06 507.32,1560.31 506.50,1560.48 Z" fill="rgb(168,81,227)"/>
<path d="M 263.95 890.68 C263.66,905.01 263.49,918.65 263.43,928.76 L 263.43 928.84 C263.40,934.56 263.42,939.11 263.47,942.00 C263.50,943.67 263.55,944.81 263.61,945.33 C264.17,950.12 264.01,950.93 262.28,951.85 C260.98,952.55 237.64,953.00 192.91,953.20 C155.83,953.37 117.79,953.63 108.37,953.79 L 91.23 954.09 L 92.15 957.79 C93.47,963.11 94.62,967.87 95.61,972.19 C96.03,974.16 96.54,976.46 97.12,979.14 C97.40,980.41 97.67,981.61 97.91,982.75 C97.95,982.93 97.98,983.10 98.02,983.27 C97.89,982.70 97.76,982.11 97.63,981.50 C91.84,955.19 88.59,943.79 80.69,922.00 C69.06,889.91 63.48,872.95 57.50,851.50 C45.60,808.75 41.12,777.65 42.31,746.00 C43.98,701.49 56.03,668.61 78.63,646.90 C88.60,637.33 96.24,634.04 108.57,634.01 C128.98,633.97 135.22,644.88 139.46,688.00 C142.72,721.11 144.98,730.47 153.78,747.27 C163.01,764.88 186.09,785.22 204.32,791.82 C215.81,795.98 226.16,797.42 234.18,795.98 C242.73,794.44 252.62,790.16 260.32,784.67 L 264.48 781.69 C263.72,782.50 263.79,783.02 264.56,783.74 C265.63,784.73 265.82,791.33 264.91,841.19 L 264.91 841.24 C264.67,854.46 264.35,870.70 263.95,890.68 ZM 268.99 680.50 C269.30,667.45 269.74,645.67 270.16,622.49 C269.75,645.97 269.33,669.30 269.02,685.50 C268.66,704.03 268.29,724.13 268.02,739.19 C268.11,724.86 268.51,700.26 268.99,680.50 ZM 274.91 362.33 C275.08,340.12 274.59,333.83 273.41,330.28 C274.59,333.85 275.09,339.93 274.91,362.33 ZM 101.60 1011.15 C101.63,1011.93 101.66,1012.71 101.69,1013.50 C102.15,1027.37 101.03,1042.20 98.58,1056.62 C101.03,1042.19 102.15,1027.36 101.68,1013.50 C101.66,1012.69 101.63,1011.91 101.60,1011.15 ZM 267.25 774.84 C267.17,776.02 267.08,776.95 266.96,777.69 ZM 272.75 475.92 C273.02,462.38 273.28,449.69 273.51,439.00 C273.28,449.84 273.01,462.53 272.75,475.92 Z" fill="rgb(234,68,63)"/>
<path d="M 0.00 786.50 L 0.00 0.00 L 333.50 0.00 L 667.00 0.00 L 666.85 682.25 C666.77,1057.49 666.37,1360.00 665.96,1354.50 C664.54,1335.41 660.01,1308.87 655.05,1290.58 C651.00,1275.67 639.92,1243.56 634.32,1230.53 C622.54,1203.13 614.67,1185.27 610.09,1175.56 C593.45,1140.30 587.83,1128.02 580.28,1110.50 C568.06,1082.12 565.11,1050.99 572.06,1023.75 C574.34,1014.83 581.42,994.47 586.42,982.50 C588.25,978.10 590.31,972.70 590.99,970.50 C591.67,968.30 593.50,963.80 595.04,960.50 C596.59,957.20 598.18,953.15 598.59,951.50 C599.00,949.85 600.34,946.47 601.56,944.00 C609.01,928.95 617.56,896.62 620.03,874.18 C624.07,837.63 613.64,793.42 597.35,777.95 C589.23,770.24 583.52,768.00 572.03,768.00 C564.38,768.00 562.18,768.38 558.22,770.41 C547.37,775.96 541.63,785.96 537.48,806.50 C530.31,842.04 521.00,864.81 509.68,874.57 C503.83,879.60 490.30,888.34 485.34,890.28 C467.63,897.22 448.00,898.46 432.53,893.61 C422.68,890.53 410.77,884.85 404.41,880.21 L 400.33 877.22 L 399.68 853.86 C399.33,841.01 398.37,797.20 397.54,756.50 C396.72,715.80 395.58,669.45 395.01,653.50 C394.44,637.55 393.55,605.38 393.01,582.00 C392.03,538.49 390.81,488.16 388.92,413.00 C388.33,389.62 387.78,359.25 387.68,345.50 C387.50,320.85 387.54,320.39 390.15,312.72 C395.19,297.96 404.85,284.62 415.73,277.39 C429.51,268.25 431.58,264.49 430.47,250.67 C429.79,242.22 428.74,237.85 420.10,207.50 C417.29,197.60 414.02,186.12 412.85,182.00 C411.67,177.88 409.61,170.90 408.26,166.50 C399.96,139.45 398.41,128.76 401.40,118.97 C402.93,113.92 403.91,112.78 414.12,104.12 C420.20,98.96 426.47,92.95 428.05,90.77 C438.58,76.24 439.36,48.79 429.76,30.73 C423.56,19.06 409.75,7.80 396.79,3.87 C391.04,2.12 387.94,1.86 376.65,2.15 L 363.31 2.50 L 353.86 7.19 C346.90,10.65 342.87,13.46 338.52,17.90 C329.13,27.47 326.71,31.85 318.96,53.35 C317.40,57.67 315.90,61.43 315.63,61.71 C314.97,62.37 302.13,58.17 299.20,56.33 C297.17,55.06 296.97,54.36 297.54,50.57 C298.81,42.12 292.97,37.00 282.06,37.00 C274.53,37.00 272.25,39.52 266.56,54.15 C261.47,67.26 261.12,71.23 264.71,75.27 C268.80,79.87 280.18,82.58 284.89,80.06 C285.85,79.54 287.47,77.29 288.47,75.06 C290.68,70.18 291.43,70.10 302.78,73.56 C309.77,75.69 311.06,76.40 310.49,77.81 C310.12,78.74 309.23,81.30 308.53,83.50 C306.83,88.80 294.96,121.38 294.59,121.74 C294.29,122.04 283.33,118.03 278.83,115.98 C276.34,114.84 276.18,114.36 276.33,108.70 C276.50,102.67 276.49,102.64 272.29,99.66 C269.26,97.52 266.57,96.55 262.79,96.24 C254.20,95.53 251.33,98.95 244.39,118.12 C239.94,130.44 241.93,135.48 252.65,139.05 C261.42,141.97 266.57,139.87 269.05,132.35 C269.66,130.51 270.55,129.00 271.03,129.00 C271.92,129.00 289.20,135.05 289.87,135.60 C290.17,135.85 282.70,157.65 276.18,175.50 C274.08,181.26 274.37,181.22 263.17,176.94 L 255.48 174.01 L 255.85 169.39 C256.06,166.76 255.65,163.71 254.89,162.30 C252.89,158.56 247.00,156.00 240.41,156.00 C235.26,156.00 234.45,156.31 231.62,159.35 C227.97,163.28 222.10,177.29 221.34,183.90 C221.05,186.43 221.29,189.72 221.87,191.21 C223.48,195.35 230.17,199.27 236.55,199.80 C243.21,200.35 245.86,198.84 248.49,193.02 C250.21,189.20 250.66,188.87 253.44,189.29 C258.06,189.98 267.39,193.67 268.32,195.17 C268.83,196.00 266.47,203.80 262.07,215.85 C258.18,226.49 254.99,235.71 254.98,236.35 C254.98,236.98 254.58,238.12 254.10,238.87 C253.17,240.34 251.65,240.00 240.15,235.76 L 234.81 233.78 L 235.46 229.45 C236.59,221.87 233.12,217.72 223.47,215.13 C217.52,213.52 212.57,215.18 209.52,219.80 C206.00,225.14 200.01,241.84 200.00,246.35 C200.00,251.55 204.59,256.14 212.20,258.54 C219.65,260.89 223.27,259.55 226.29,253.34 C227.88,250.07 228.97,249.00 230.72,249.00 C232.84,249.00 246.76,253.43 247.75,254.42 C247.98,254.65 246.11,260.90 243.59,268.30 C236.35,289.53 237.21,294.87 249.23,303.44 C264.97,314.67 270.10,320.36 273.41,330.28 C275.43,336.36 275.44,350.49 273.51,439.00 C272.71,475.58 271.59,535.65 271.01,572.50 C270.44,609.35 269.53,657.95 268.99,680.50 C268.44,703.05 268.00,731.90 268.00,744.60 C268.00,757.31 267.71,770.50 267.35,773.91 L 266.70 780.11 L 260.32 784.67 C252.62,790.16 242.73,794.44 234.18,795.98 C226.16,797.42 215.81,795.98 204.32,791.82 C186.09,785.22 163.01,764.88 153.78,747.27 C144.98,730.47 142.72,721.11 139.46,688.00 C135.22,644.88 128.98,633.97 108.57,634.01 C96.24,634.04 88.60,637.33 78.63,646.90 C56.03,668.61 43.98,701.49 42.31,746.00 C41.12,777.65 45.60,808.75 57.50,851.50 C63.48,872.95 69.06,889.91 80.69,922.00 C88.59,943.79 91.84,955.19 97.63,981.50 C100.55,994.79 101.24,1000.21 101.68,1013.50 C102.62,1041.68 97.04,1073.92 86.97,1098.50 C86.52,1099.60 83.64,1106.47 80.58,1113.76 C77.51,1121.05 75.00,1127.32 75.00,1127.69 C75.00,1128.37 74.38,1129.75 67.71,1144.00 C65.78,1148.12 63.07,1154.20 61.69,1157.50 C60.31,1160.80 58.02,1165.53 56.60,1168.00 C55.18,1170.47 54.02,1173.14 54.01,1173.91 C54.01,1174.69 52.42,1178.65 50.50,1182.70 C48.58,1186.76 47.00,1190.27 47.00,1190.51 C47.00,1190.75 45.93,1193.32 44.61,1196.22 C39.54,1207.42 38.24,1210.59 37.60,1213.29 C37.24,1214.83 35.38,1219.42 33.47,1223.49 C31.56,1227.57 30.00,1231.19 30.00,1231.54 C30.00,1231.89 28.01,1237.20 25.59,1243.34 C17.77,1263.11 10.81,1286.20 9.42,1297.00 C9.17,1298.93 8.73,1301.25 8.44,1302.17 C7.85,1304.06 7.59,1305.32 5.50,1316.50 C4.68,1320.90 3.76,1327.65 3.47,1331.50 C3.17,1335.35 2.51,1343.08 2.00,1348.68 C1.48,1354.29 1.27,1361.71 1.53,1365.18 C1.79,1368.66 2.20,1375.78 2.45,1381.00 C3.17,1396.20 4.39,1404.46 6.26,1406.77 C6.82,1407.47 7.04,1408.30 6.73,1408.60 C5.93,1409.40 11.42,1429.15 15.01,1438.43 C20.17,1451.72 29.17,1466.50 42.37,1483.33 C56.27,1501.07 81.62,1522.25 102.00,1533.17 C105.57,1535.08 109.40,1537.16 110.50,1537.77 C112.27,1538.77 117.67,1541.27 129.00,1546.33 C133.46,1548.32 143.47,1551.89 148.00,1553.10 C149.93,1553.61 154.43,1554.89 158.00,1555.94 C161.57,1556.99 166.52,1558.38 169.00,1559.04 C171.48,1559.69 174.62,1560.60 176.00,1561.05 C177.38,1561.51 180.52,1562.17 183.00,1562.53 C185.48,1562.88 189.77,1563.82 192.55,1564.60 C197.92,1566.12 215.61,1568.30 238.50,1570.29 C257.83,1571.96 420.47,1571.93 438.00,1570.25 C476.45,1566.56 479.31,1566.16 506.50,1560.48 C508.15,1560.13 510.40,1559.47 511.50,1559.02 C512.60,1558.56 515.75,1557.62 518.50,1556.94 C521.25,1556.25 523.95,1555.37 524.50,1554.98 C525.05,1554.58 527.12,1553.97 529.10,1553.61 C531.07,1553.26 534.54,1552.07 536.80,1550.98 C539.06,1549.89 541.40,1549.00 542.02,1549.00 C545.36,1549.00 572.04,1535.42 582.00,1528.64 C592.06,1521.80 607.99,1509.01 614.56,1502.51 C620.55,1496.58 628.97,1486.16 635.44,1476.66 C640.46,1469.31 651.51,1447.97 654.96,1439.00 C659.43,1427.34 664.82,1400.14 666.34,1381.50 C666.52,1379.30 666.74,1421.49 666.83,1475.25 L 667.00 1573.00 L 333.50 1573.00 L 0.00 1573.00 L 0.00 786.50 Z" fill=""/>
</g>
</svg>